<svg width="23" height="26" viewBox="0 0 23 26" fill="none" xmlns="http://www.w3.org/2000/svg">
<path d="M22.3156 15.648L11.9093 25.773C11.8557 25.8253 11.7919 25.8668 11.7217 25.8951C11.6515 25.9234 11.5763 25.9379 11.5003 25.9379C11.4243 25.9379 11.3491 25.9234 11.2789 25.8951C11.2088 25.8668 11.145 25.8253 11.0913 25.773L0.685048 15.648C0.576568 15.5424 0.515625 15.3993 0.515625 15.25C0.515625 15.1007 0.576569 14.9576 0.685048 14.852C0.793528 14.7465 0.940658 14.6872 1.09407 14.6872C1.24748 14.6872 1.39462 14.7465 1.5031 14.852L10.9222 24.0166V0.625C10.9222 0.475816 10.9831 0.332742 11.0915 0.227253C11.1999 0.121763 11.347 0.0625 11.5003 0.0625C11.6537 0.0625 11.8007 0.121763 11.9091 0.227253C12.0175 0.332742 12.0784 0.475816 12.0784 0.625V24.0166L21.4975 14.852C21.606 14.7465 21.7532 14.6872 21.9066 14.6872C22.06 14.6872 22.2071 14.7465 22.3156 14.852C22.4241 14.9576 22.485 15.1007 22.485 15.25C22.485 15.3993 22.4241 15.5424 22.3156 15.648Z" fill="#141414"/>
</svg>
