<svg width="29" height="21" viewBox="0 0 29 21" fill="none" xmlns="http://www.w3.org/2000/svg">
<path d="M28.2966 1.92156L10.2966 19.9216C10.1921 20.0262 10.068 20.1091 9.93143 20.1658C9.79486 20.2224 9.64847 20.2515 9.50062 20.2515C9.35278 20.2515 9.20639 20.2224 9.06982 20.1658C8.93324 20.1091 8.80917 20.0262 8.70469 19.9216L0.829688 12.0466C0.618592 11.8355 0.5 11.5492 0.5 11.2506C0.5 10.9521 0.618592 10.6658 0.829688 10.4547C1.04078 10.2436 1.32709 10.125 1.62563 10.125C1.92416 10.125 2.21047 10.2436 2.42156 10.4547L9.50062 17.5352L26.7047 0.329687C26.9158 0.118592 27.2021 -2.22425e-09 27.5006 0C27.7992 2.22426e-09 28.0855 0.118592 28.2966 0.329687C28.5077 0.540783 28.6262 0.827091 28.6262 1.12563C28.6262 1.42416 28.5077 1.71047 28.2966 1.92156Z" fill="#FF9133"/>
</svg>
