<svg width="25" height="24" viewBox="0 0 25 24" fill="none" xmlns="http://www.w3.org/2000/svg">
<rect x="1" y="0.5" width="23" height="23" rx="5.5" stroke="#6FD7EA"/>
<path d="M7.17684 11.5741C7.17684 11.5741 12.0596 9.51754 13.753 8.79339C14.4021 8.50376 16.6036 7.57684 16.6036 7.57684C16.6036 7.57684 17.6197 7.17135 17.535 8.15615C17.5067 8.56168 17.281 9.98096 17.0552 11.5161C16.7165 13.6886 16.3496 16.0637 16.3496 16.0637C16.3496 16.0637 16.2931 16.7299 15.8133 16.8458C15.3335 16.9616 14.5432 16.4403 14.4021 16.3244C14.2892 16.2375 12.2853 14.9341 11.5515 14.2968C11.354 14.123 11.1282 13.7755 11.5797 13.3699C12.5958 12.4141 13.8094 11.2265 14.5432 10.4734C14.8819 10.1258 15.2206 9.31478 13.8094 10.2996C11.8056 11.7189 9.82988 13.0513 9.82988 13.0513C9.82988 13.0513 9.37829 13.3409 8.53159 13.0803C7.68484 12.8196 6.69701 12.472 6.69701 12.472C6.69701 12.472 6.01968 12.0375 7.17684 11.5741Z" fill="#6FD7EA"/>
</svg>
