<svg width="25" height="24" viewBox="0 0 25 24" fill="none" xmlns="http://www.w3.org/2000/svg">
<rect x="1" y="0.5" width="23" height="23" rx="5.5" stroke="#6FD7EA"/>
<path fill-rule="evenodd" clip-rule="evenodd" d="M7.36097 14.3543L6.5 17.5556L9.73373 16.6927C10.9918 17.3697 12.4521 17.5711 13.8469 17.2599C15.2416 16.9487 16.4772 16.1458 17.3268 14.9985C18.1765 13.8513 18.5832 12.4366 18.4724 11.0141C18.3616 9.59164 17.7407 8.25675 16.7236 7.25441C15.7066 6.25207 14.3615 5.64952 12.9354 5.55732C11.5092 5.46512 10.0976 5.88947 8.95951 6.75249C7.82144 7.6155 7.03327 8.8593 6.73965 10.2556C6.44602 11.652 6.66662 13.1072 7.36097 14.3543ZM10.0896 15.6132L9.88966 15.4947L8.08297 15.9752L8.5643 14.1885L8.43888 13.982C7.97927 13.2349 7.73637 12.375 7.73722 11.4982C7.73565 10.4407 8.08452 9.41236 8.72946 8.57348C9.3744 7.7346 10.2792 7.13227 11.3028 6.86036C12.3265 6.58845 13.4114 6.66223 14.3887 7.0702C15.3659 7.47817 16.1805 8.19742 16.7056 9.11586C17.2306 10.0343 17.4366 11.1003 17.2914 12.1478C17.1462 13.1954 16.658 14.1655 15.9029 14.9071C15.1478 15.6487 14.1681 16.1201 13.1166 16.2478C12.0651 16.3755 11.0009 16.1524 10.0896 15.6132ZM14.3417 12.1259C14.4885 12.1594 14.6258 12.2258 14.743 12.3202C14.7772 12.3403 14.8145 12.361 14.8536 12.3827C15.0781 12.5072 15.3588 12.663 15.4108 12.9023C15.4362 13.0396 15.4185 13.1815 15.36 13.3084C15.2604 13.5184 15.1106 13.7008 14.9238 13.8394C14.737 13.9781 14.519 14.0688 14.2888 14.1036C13.8849 14.1494 13.4761 14.085 13.1058 13.9175C12.7494 13.7957 12.4082 13.6333 12.0889 13.4336C11.4527 13.0406 10.899 12.528 10.4585 11.9243C10.323 11.7405 10.1974 11.5496 10.0823 11.3524C9.92272 11.095 9.80168 10.8156 9.72297 10.5233C9.69197 10.4016 9.67604 10.2766 9.67551 10.1511C9.66773 9.92748 9.71029 9.70501 9.80004 9.50003C9.8898 9.29505 10.0245 9.11278 10.1941 8.96664C10.2919 8.87981 10.4127 8.82306 10.542 8.80324C10.6713 8.78343 10.8036 8.80139 10.9229 8.85497C11.1542 9.0501 11.3248 9.30726 11.4144 9.59607C11.5303 9.80207 11.5845 10.037 11.5703 10.2729C11.5067 10.4867 11.3901 10.6811 11.2314 10.838C11.186 10.8768 11.1575 10.9316 11.1518 10.9909C11.1461 11.0502 11.1637 11.1095 11.2009 11.1561C11.6367 11.9036 12.3128 12.482 13.1194 12.7974C13.1643 12.8219 13.2166 12.8293 13.2665 12.8181C13.3164 12.8068 13.3606 12.7778 13.3906 12.7365C13.4352 12.6824 13.4798 12.6113 13.5269 12.5364C13.6299 12.3724 13.7444 12.1901 13.8956 12.1273C14.0423 12.093 14.1948 12.0925 14.3417 12.1259Z" fill="#6FD7EA"/>
</svg>
