<svg width="25" height="24" viewBox="0 0 25 24" fill="none" xmlns="http://www.w3.org/2000/svg">
<rect x="1" y="0.5" width="23" height="23" rx="5.5" stroke="#6FD7EA"/>
<path d="M9.40353 16.9897C9.40353 16.7749 9.40353 16.56 9.40353 16.3452C9.40506 16.3364 9.40475 16.3274 9.40262 16.3187C9.4005 16.3101 9.3966 16.3019 9.39118 16.2948C9.38575 16.2877 9.37891 16.2818 9.37108 16.2774C9.36325 16.273 9.35459 16.2703 9.34564 16.2693C8.80822 16.1181 8.31219 15.8486 7.89451 15.4809C7.59018 15.2066 7.3368 14.8815 7.14589 14.5205C6.87679 13.9989 6.69771 13.4363 6.61606 12.8561C6.51489 12.1284 6.47976 11.3931 6.51108 10.6591C6.51794 10.3169 6.5356 9.97856 6.57485 9.63637C6.63744 8.98609 6.803 8.34964 7.06543 7.75039C7.38949 7.0136 7.97737 6.42176 8.71574 6.08899C9.21872 5.86093 9.74786 5.69444 10.2915 5.59319C10.8246 5.49314 11.3643 5.43173 11.9065 5.40946C12.3951 5.39233 12.8844 5.39947 13.3723 5.43084C14.0707 5.46005 14.7628 5.57466 15.4328 5.77207C15.9295 5.91395 16.4021 6.12857 16.8348 6.40883C17.2565 6.69562 17.5975 7.08404 17.8258 7.53749C18.0942 8.06711 18.2766 8.63534 18.3664 9.22126C18.4247 9.56912 18.4631 9.91998 18.4812 10.2722C18.5067 10.7086 18.5038 11.1471 18.4871 11.5816C18.4704 12.0162 18.4331 12.4381 18.3792 12.8639C18.311 13.503 18.1127 14.1218 17.7964 14.6828C17.3846 15.3925 16.725 15.9285 15.942 16.1896C15.4065 16.3754 14.8537 16.5076 14.2917 16.5843C13.8806 16.6407 13.4685 16.6815 13.0544 16.6981C12.7375 16.7127 12.4206 16.7088 12.1037 16.7039C11.9241 16.7039 11.7456 16.6864 11.567 16.6708C11.5495 16.6676 11.5313 16.6695 11.5149 16.6764C11.4985 16.6834 11.4845 16.6949 11.4748 16.7097C11.1137 17.1394 10.7389 17.5574 10.3611 17.9735C10.2923 18.0494 10.2127 18.1149 10.1247 18.168C10.0669 18.2055 10.0011 18.2291 9.93243 18.2367C9.86379 18.2444 9.79429 18.236 9.72955 18.2121C9.6648 18.1883 9.60662 18.1497 9.5597 18.0995C9.51278 18.0492 9.47845 17.9888 9.45946 17.923C9.42207 17.806 9.40353 17.684 9.40451 17.5613C9.40353 17.3689 9.40353 17.1793 9.40353 16.9897ZM9.84015 17.8053L9.88626 17.7626L10.7055 16.8614C11.0208 16.5147 11.3358 16.1676 11.6504 15.8202C11.6659 15.799 11.6867 15.7823 11.7108 15.7717C11.735 15.7611 11.7615 15.757 11.7877 15.7599C11.8947 15.7706 12.0016 15.7745 12.1096 15.7755C12.4824 15.7755 12.8553 15.7755 13.2281 15.7492C13.5666 15.723 13.9041 15.6822 14.2397 15.6297C14.6009 15.5674 14.9586 15.4859 15.3111 15.3857C16.096 15.1767 16.7034 14.7295 17.085 14.0052C17.3104 13.5599 17.4517 13.0776 17.502 12.582C17.5617 12.1149 17.5974 11.645 17.609 11.1743C17.6264 10.583 17.5856 9.9914 17.4873 9.40791C17.4191 8.98517 17.2965 8.57284 17.1223 8.18106C16.9006 7.69498 16.5866 7.29251 16.1029 7.03392C15.3611 6.63728 14.5585 6.46035 13.7314 6.36994C13.4969 6.34466 13.2624 6.33105 13.027 6.3223C12.5448 6.29768 12.0616 6.30027 11.5797 6.33008C11.2332 6.35556 10.8885 6.40166 10.5476 6.46813C10.0461 6.55869 9.56107 6.7225 9.1082 6.9542C8.84566 7.08564 8.60747 7.26018 8.40373 7.47041C8.07354 7.83608 7.83133 8.27117 7.69533 8.74296C7.534 9.29242 7.44593 9.86045 7.43337 10.4326C7.4018 11.0047 7.40901 11.5782 7.45495 12.1494C7.48353 12.4893 7.54097 12.8262 7.62665 13.1565C7.75413 13.6713 8.00144 14.1494 8.34879 14.5525C8.72379 14.9638 9.20846 15.2617 9.74694 15.4119C9.81464 15.4323 9.84505 15.4557 9.84505 15.5315C9.83917 15.8115 9.84505 16.0914 9.84505 16.3714L9.84015 17.8053Z" fill="#6FD7EA"/>
<path d="M9.15399 9.12263C9.14712 8.90973 9.26388 8.75516 9.40516 8.61614C9.59151 8.43927 9.79681 8.28312 10.0174 8.15048C10.118 8.08901 10.2376 8.06559 10.3542 8.08452C10.4709 8.10345 10.5767 8.16347 10.6522 8.25353C10.9191 8.53151 11.158 8.83464 11.3655 9.1586C11.4683 9.30432 11.5459 9.46596 11.5951 9.6369C11.6148 9.7036 11.6161 9.77432 11.5988 9.84168C11.5816 9.90904 11.5464 9.97059 11.497 10.0199C11.3838 10.13 11.2632 10.2323 11.1359 10.3262C11.0718 10.3768 11.0241 10.445 10.9988 10.5222C10.9736 10.5995 10.9717 10.6824 10.9937 10.7607C11.0722 11.1283 11.2503 11.4677 11.5088 11.7426C11.8228 12.1225 12.2275 12.4188 12.6862 12.6049C12.7989 12.6623 12.928 12.6798 13.0521 12.6545C13.1201 12.6361 13.1805 12.597 13.2248 12.5427C13.2935 12.4561 13.3681 12.3725 13.4299 12.2802C13.51 12.165 13.6325 12.0854 13.771 12.0583C13.9096 12.0312 14.0533 12.0589 14.1716 12.1353C14.5042 12.3265 14.8182 12.5478 15.1096 12.7964C15.1783 12.8547 15.2499 12.9111 15.3186 12.9704C15.3999 13.0318 15.4586 13.1179 15.4857 13.2156C15.5128 13.3132 15.5068 13.417 15.4687 13.5109C15.4081 13.6689 15.3197 13.8151 15.2077 13.9426C15.0685 14.1342 14.8912 14.2957 14.6867 14.417C14.589 14.4738 14.4791 14.5072 14.366 14.5145C14.2529 14.5218 14.1396 14.5027 14.0353 14.4588C13.2414 14.1421 12.4997 13.7099 11.8345 13.1765C11.1839 12.6458 10.6153 12.0235 10.1469 11.3294C9.75278 10.7548 9.43921 10.1298 9.21482 9.47163C9.19093 9.39202 9.17127 9.31122 9.15595 9.22957C9.15159 9.19408 9.15093 9.15825 9.15399 9.12263Z" fill="#6FD7EA"/>
<path d="M12.541 8.0882C13.2051 8.10037 13.8439 8.34311 14.346 8.7741C14.848 9.2051 15.1815 9.79701 15.2882 10.4466C15.3312 10.6828 15.3542 10.9222 15.3569 11.1621C15.3569 11.2185 15.3422 11.2594 15.2814 11.2652C15.2205 11.271 15.2048 11.2195 15.2048 11.168C15.2139 10.6826 15.1134 10.2013 14.9105 9.75933C14.7396 9.3962 14.4865 9.07702 14.1708 8.82663C13.8552 8.57624 13.4854 8.40139 13.0904 8.31568C12.8816 8.26778 12.668 8.243 12.4537 8.2418C12.4328 8.24216 12.412 8.23954 12.3918 8.23402C12.3747 8.22924 12.3601 8.21805 12.3512 8.20282C12.3422 8.18758 12.3395 8.16949 12.3438 8.15236C12.3439 8.14424 12.3456 8.13622 12.3489 8.12877C12.3522 8.12132 12.357 8.1146 12.3629 8.10899C12.3688 8.10338 12.3758 8.09899 12.3835 8.09609C12.3912 8.09319 12.3993 8.09183 12.4075 8.09209C12.4517 8.08626 12.4968 8.0882 12.541 8.0882Z" fill="#6FD7EA"/>
<path d="M14.4358 10.7244C14.4326 10.4543 14.3654 10.1888 14.2398 9.94904C14.1143 9.70931 13.9337 9.50207 13.7127 9.34395C13.4548 9.16443 13.1549 9.05301 12.8415 9.02022C12.7885 9.01342 12.7355 9.0105 12.6815 9.00467C12.6276 8.99884 12.5952 8.97648 12.6001 8.92204C12.605 8.8676 12.6393 8.84815 12.6982 8.85204C13.5675 8.90454 14.3073 9.39159 14.5349 10.2986C14.5766 10.4735 14.5973 10.6526 14.5968 10.8323C14.5968 10.8488 14.5968 10.8654 14.5968 10.8809C14.5968 10.9295 14.5654 10.9616 14.5173 10.9606C14.5066 10.9603 14.4961 10.9578 14.4865 10.9533C14.4768 10.9488 14.4682 10.9424 14.4611 10.9345C14.4541 10.9265 14.4487 10.9173 14.4454 10.9072C14.442 10.8972 14.4408 10.8866 14.4417 10.8761C14.4339 10.8304 14.4358 10.7837 14.4358 10.7244Z" fill="#6FD7EA"/>
<path d="M12.9118 9.64109C13.3887 9.67317 13.7213 9.90454 13.8125 10.4071C13.8236 10.4715 13.8315 10.5364 13.8361 10.6016C13.8361 10.6541 13.8243 10.6988 13.7664 10.6988C13.7085 10.6988 13.6889 10.6599 13.6869 10.6016C13.6864 10.4089 13.6265 10.221 13.5152 10.063C13.3983 9.91989 13.2305 9.82665 13.0462 9.80247C13.0051 9.79484 12.9634 9.78964 12.9216 9.78691C12.853 9.78691 12.8147 9.75289 12.8235 9.70039C12.8324 9.6479 12.8736 9.63817 12.9118 9.64109Z" fill="#6FD7EA"/>
</svg>
