<svg width="35" height="35" viewBox="0 0 35 35" fill="none" xmlns="http://www.w3.org/2000/svg">
<path d="M31.5706 28.9842C29.4884 25.3844 26.2796 22.8031 22.5349 21.5795C24.3872 20.4768 25.8263 18.7966 26.6312 16.7968C27.4362 14.797 27.5624 12.5883 26.9906 10.5099C26.4188 8.43141 25.1805 6.59812 23.4659 5.29155C21.7513 3.98497 19.6552 3.27734 17.4995 3.27734C15.3438 3.27734 13.2477 3.98497 11.5331 5.29155C9.81853 6.59812 8.58024 8.43141 8.0084 10.5099C7.43657 12.5883 7.56282 14.797 8.36776 16.7968C9.17271 18.7966 10.6118 20.4768 12.4641 21.5795C8.71942 22.8018 5.51063 25.383 3.42841 28.9842C3.35205 29.1087 3.3014 29.2472 3.27945 29.3916C3.2575 29.536 3.26469 29.6834 3.30061 29.8249C3.33652 29.9665 3.40043 30.0995 3.48855 30.2159C3.57668 30.3324 3.68724 30.4301 3.81371 30.5031C3.94019 30.5762 4.08001 30.6231 4.22494 30.6413C4.36987 30.6594 4.51696 30.6484 4.65754 30.6087C4.79812 30.5691 4.92933 30.5017 5.04345 30.4106C5.15756 30.3194 5.25226 30.2063 5.32196 30.0779C7.89774 25.6264 12.4505 22.9686 17.4995 22.9686C22.5485 22.9686 27.1013 25.6264 29.677 30.0779C29.7467 30.2063 29.8414 30.3194 29.9556 30.4106C30.0697 30.5017 30.2009 30.5691 30.3415 30.6087C30.482 30.6484 30.6291 30.6594 30.7741 30.6413C30.919 30.6231 31.0588 30.5762 31.1853 30.5031C31.3118 30.4301 31.4223 30.3324 31.5104 30.2159C31.5986 30.0995 31.6625 29.9665 31.6984 29.8249C31.7343 29.6834 31.7415 29.536 31.7195 29.3916C31.6976 29.2472 31.647 29.1087 31.5706 28.9842ZM9.84325 13.1248C9.84325 11.6106 10.2923 10.1303 11.1336 8.87123C11.9748 7.61217 13.1706 6.63084 14.5696 6.05136C15.9686 5.47188 17.508 5.32026 18.9932 5.61568C20.4783 5.91109 21.8425 6.64028 22.9133 7.71103C23.984 8.78177 24.7132 10.146 25.0086 11.6312C25.3041 13.1163 25.1524 14.6557 24.573 16.0547C23.9935 17.4537 23.0121 18.6495 21.7531 19.4908C20.494 20.332 19.0138 20.7811 17.4995 20.7811C15.4696 20.7789 13.5235 19.9716 12.0881 18.5362C10.6528 17.1008 9.84542 15.1547 9.84325 13.1248Z" fill="#4F4F4F"/>
</svg>
