<svg width="40" height="40" viewBox="0 0 40 40" fill="none" xmlns="http://www.w3.org/2000/svg">
<path d="M9.284 13.1456C8.8065 10.0006 11.024 7.17563 14.4115 6.14063C15.0126 5.95684 15.6612 6.00916 16.2251 6.28693C16.7891 6.5647 17.2258 7.04703 17.4465 7.63563L18.534 10.5356C18.7091 11.0022 18.7407 11.5104 18.6249 11.995C18.5091 12.4797 18.2511 12.9187 17.884 13.2556L14.649 16.2181C14.4895 16.3645 14.3707 16.5496 14.3041 16.7555C14.2375 16.9615 14.2254 17.1811 14.269 17.3931L14.299 17.5231L14.3765 17.8481C14.7788 19.4272 15.3918 20.945 16.199 22.3606C17.0783 23.8649 18.1695 25.2348 19.439 26.4281L19.539 26.5181C19.7005 26.6615 19.8964 26.7606 20.1076 26.8057C20.3187 26.8508 20.538 26.8405 20.744 26.7756L24.9265 25.4581C25.4018 25.3089 25.9109 25.3051 26.3884 25.4472C26.8659 25.5893 27.2901 25.8708 27.6065 26.2556L29.5865 28.6581C30.4115 29.6581 30.3115 31.1281 29.364 32.0106C26.7715 34.4281 23.2065 34.9231 20.7265 32.9306C17.6866 30.4785 15.1239 27.4879 13.1665 24.1081C11.1932 20.731 9.87765 17.0117 9.284 13.1456ZM16.8915 17.5581L19.5715 15.0981C20.3061 14.4245 20.8226 13.5466 21.0547 12.5773C21.2867 11.608 21.2238 10.5914 20.874 9.65813L19.789 6.75813C19.3449 5.57375 18.4658 4.60328 17.331 4.04448C16.1962 3.48568 14.8911 3.38059 13.6815 3.75063C9.474 5.03813 6.0965 8.81063 6.8115 13.5231C7.3115 16.8131 8.464 20.9981 11.0065 25.3681C13.1183 29.0124 15.8826 32.2369 19.1615 34.8806C22.8815 37.8681 27.8465 36.8481 31.0715 33.8431C31.9943 32.9839 32.5544 31.805 32.6376 30.5469C32.7207 29.2888 32.3207 28.0463 31.519 27.0731L29.539 24.6681C28.9056 23.8993 28.057 23.3373 27.102 23.054C26.147 22.7707 25.1292 22.7791 24.179 23.0781L20.7065 24.1706C19.8099 23.2462 19.0246 22.2201 18.3665 21.1131C17.7308 19.994 17.2354 18.8009 16.8915 17.5606V17.5581Z" fill="#4F4F4F"/>
</svg>
