<svg width="41" height="40" viewBox="0 0 41 40" fill="none" xmlns="http://www.w3.org/2000/svg">
<rect x="0.574219" y="0.5" width="39" height="39" rx="5.5" stroke="#6FD7EA"/>
<path d="M11.2024 19.2916C11.2024 19.2916 19.3403 15.864 22.1626 14.6571C23.2446 14.1744 26.9137 12.6295 26.9137 12.6295C26.9137 12.6295 28.6071 11.9537 28.466 13.5951C28.4189 14.2709 28.0426 16.6364 27.6663 19.195C27.1018 22.8157 26.4903 26.7743 26.4903 26.7743C26.4903 26.7743 26.3962 27.8847 25.5966 28.0778C24.7969 28.2708 23.4797 27.4019 23.2446 27.2088C23.0564 27.064 19.7166 24.8916 18.4936 23.8295C18.1643 23.5398 17.788 22.9606 18.5406 22.2847C20.234 20.6916 22.2567 18.7123 23.4797 17.4571C24.0443 16.8778 24.6087 15.5261 22.2567 17.1674C18.9169 19.533 15.6241 21.7537 15.6241 21.7537C15.6241 21.7537 14.8715 22.2364 13.4603 21.8019C12.0491 21.3675 10.4027 20.7881 10.4027 20.7881C10.4027 20.7881 9.2738 20.064 11.2024 19.2916Z" fill="#6FD7EA"/>
</svg>
