<svg width="41" height="40" viewBox="0 0 41 40" fill="none" xmlns="http://www.w3.org/2000/svg">
<rect x="0.574219" y="0.5" width="39" height="39" rx="5.5" stroke="#6FD7EA"/>
<path d="M14.9134 28.3155C14.9134 27.9575 14.9134 27.5994 14.9134 27.2413C14.916 27.2267 14.9155 27.2117 14.9119 27.1972C14.9084 27.1828 14.9019 27.1692 14.8928 27.1574C14.8838 27.1456 14.8724 27.1357 14.8593 27.1284C14.8463 27.1211 14.8319 27.1165 14.817 27.1149C13.9213 26.8628 13.0945 26.4136 12.3984 25.8009C11.8912 25.3437 11.4689 24.8019 11.1507 24.2001C10.7022 23.3308 10.4037 22.3932 10.2677 21.4262C10.099 20.2133 10.0405 18.9878 10.0927 17.7645C10.1041 17.1941 10.1336 16.6303 10.199 16.06C10.3033 14.9762 10.5792 13.9154 11.0166 12.9167C11.5567 11.6887 12.5365 10.7023 13.7671 10.1477C14.6054 9.76757 15.4873 9.49008 16.3934 9.32134C17.2819 9.15458 18.1815 9.05224 19.085 9.01511C19.8995 8.98657 20.7148 8.99847 21.5281 9.05075C22.692 9.09943 23.8455 9.29045 24.9621 9.61946C25.7901 9.85593 26.5777 10.2136 27.2989 10.6807C28.0017 11.1587 28.5701 11.8061 28.9506 12.5618C29.3979 13.4445 29.702 14.3916 29.8516 15.3681C29.9488 15.9479 30.0127 16.5327 30.0429 17.1196C30.0854 17.8471 30.0805 18.5778 30.0527 19.3021C30.0249 20.0263 29.9628 20.7295 29.8728 21.4392C29.7592 22.5043 29.4287 23.5356 28.9015 24.4707C28.2152 25.6536 27.1159 26.5468 25.8108 26.9821C24.9185 27.2917 23.997 27.5121 23.0603 27.6399C22.3752 27.7339 21.6883 27.8019 20.9983 27.8295C20.4701 27.8538 19.9419 27.8473 19.4137 27.8392C19.1144 27.8392 18.8168 27.81 18.5192 27.7841C18.49 27.7786 18.4598 27.7819 18.4324 27.7934C18.4051 27.805 18.3818 27.8243 18.3655 27.8489C17.7637 28.5651 17.139 29.2618 16.5095 29.9552C16.3948 30.0817 16.262 30.1909 16.1154 30.2793C16.0191 30.3419 15.9093 30.3811 15.7949 30.3939C15.6805 30.4067 15.5647 30.3927 15.4568 30.3529C15.3489 30.3132 15.2519 30.2489 15.1737 30.1651C15.0955 30.0814 15.0383 29.9807 15.0066 29.871C14.9443 29.6761 14.9134 29.4727 14.9151 29.2682C14.9134 28.9474 14.9134 28.6315 14.9134 28.3155ZM15.6411 29.6749L15.718 29.6036L17.0834 28.1017C17.6089 27.5238 18.1338 26.9453 18.6582 26.3664C18.684 26.3311 18.7187 26.3031 18.759 26.2855C18.7992 26.2679 18.8434 26.2611 18.8871 26.2659C19.0654 26.2837 19.2436 26.2902 19.4235 26.2918C20.0449 26.2918 20.6663 26.2918 21.2877 26.2481C21.8519 26.2044 22.4144 26.1363 22.9737 26.0488C23.5758 25.9449 24.1719 25.8092 24.7594 25.6421C26.0676 25.2938 27.0798 24.5485 27.7159 23.3414C28.0915 22.5992 28.327 21.7953 28.4109 20.9693C28.5103 20.1908 28.5698 19.4077 28.5892 18.6232C28.6182 17.6377 28.5502 16.6517 28.3864 15.6792C28.2728 14.9746 28.0683 14.2874 27.7781 13.6344C27.4085 12.8243 26.8852 12.1535 26.079 11.7225C24.8428 11.0615 23.5051 10.7666 22.1266 10.6159C21.7358 10.5738 21.3449 10.5511 20.9525 10.5365C20.1489 10.4955 19.3436 10.4998 18.5405 10.5495C17.9629 10.592 17.3884 10.6688 16.8202 10.7796C15.9845 10.9305 15.176 11.2035 14.4212 11.5897C13.9836 11.8088 13.5867 12.0997 13.2471 12.45C12.6968 13.0595 12.2931 13.7846 12.0664 14.5709C11.7975 15.4867 11.6508 16.4334 11.6298 17.3869C11.5772 18.3405 11.5892 19.2964 11.6658 20.2483C11.7134 20.8148 11.8092 21.3763 11.952 21.9269C12.1644 22.7849 12.5766 23.5817 13.1555 24.2536C13.7805 24.939 14.5883 25.4356 15.4858 25.6859C15.5986 25.7199 15.6493 25.7588 15.6493 25.8852C15.6395 26.3518 15.6493 26.8184 15.6493 27.2851L15.6411 29.6749Z" fill="#6FD7EA"/>
<path d="M14.4975 15.203C14.486 14.8482 14.6806 14.5905 14.9161 14.3588C15.2267 14.0641 15.5688 13.8038 15.9365 13.5827C16.1042 13.4803 16.3035 13.4413 16.4979 13.4728C16.6923 13.5044 16.8686 13.6044 16.9945 13.7545C17.4394 14.2178 17.8375 14.723 18.1834 15.2629C18.3546 15.5058 18.4839 15.7752 18.566 16.0601C18.5988 16.1713 18.6009 16.2891 18.5722 16.4014C18.5434 16.5137 18.4848 16.6163 18.4025 16.6985C18.2138 16.882 18.0128 17.0525 17.8007 17.2089C17.6939 17.2932 17.6144 17.4069 17.5722 17.5357C17.5301 17.6644 17.5271 17.8027 17.5636 17.9331C17.6946 18.5457 17.9913 19.1114 18.4221 19.5696C18.9455 20.2027 19.62 20.6967 20.3844 21.0067C20.5723 21.1024 20.7875 21.1316 20.9944 21.0894C21.1077 21.0587 21.2084 20.9936 21.2822 20.903C21.3967 20.7588 21.5209 20.6195 21.624 20.4656C21.7576 20.2736 21.9616 20.1409 22.1925 20.0958C22.4235 20.0507 22.6631 20.0967 22.8602 20.2242C23.4145 20.5428 23.9379 20.9116 24.4235 21.3259C24.538 21.4231 24.6574 21.5171 24.7718 21.616C24.9073 21.7183 25.0051 21.8618 25.0503 22.0246C25.0955 22.1873 25.0856 22.3602 25.022 22.5168C24.921 22.7802 24.7737 23.0237 24.5871 23.2362C24.3551 23.5557 24.0596 23.8248 23.7187 24.0269C23.5558 24.1217 23.3727 24.1774 23.1842 24.1895C22.9956 24.2016 22.8068 24.1697 22.6329 24.0966C21.3099 23.5688 20.0736 22.8485 18.965 21.9594C17.8807 21.075 16.933 20.0378 16.1524 18.881C15.4955 17.9233 14.9728 16.8817 14.5989 15.7847C14.559 15.652 14.5263 15.5173 14.5007 15.3812C14.4935 15.3221 14.4924 15.2624 14.4975 15.203Z" fill="#6FD7EA"/>
<path d="M20.1425 13.4795C21.2495 13.4998 22.3141 13.9044 23.1509 14.6227C23.9876 15.341 24.5434 16.3275 24.7213 17.4103C24.7929 17.8039 24.8312 18.2028 24.8357 18.6028C24.8357 18.6967 24.8112 18.7648 24.7098 18.7745C24.6084 18.7842 24.5823 18.6984 24.5823 18.6125C24.5974 17.8034 24.4298 17.0013 24.0917 16.2647C23.8069 15.6595 23.3851 15.1276 22.8589 14.7102C22.3328 14.2929 21.7166 14.0015 21.0583 13.8587C20.7102 13.7788 20.3542 13.7375 19.997 13.7355C19.9622 13.7361 19.9275 13.7318 19.894 13.7226C19.8654 13.7146 19.8411 13.6959 19.8261 13.6705C19.8112 13.6452 19.8068 13.615 19.8138 13.5865C19.814 13.5729 19.817 13.5595 19.8224 13.5471C19.8279 13.5347 19.8358 13.5235 19.8457 13.5142C19.8556 13.5048 19.8673 13.4975 19.8801 13.4927C19.8928 13.4878 19.9064 13.4856 19.9201 13.486C19.9937 13.4763 20.0689 13.4795 20.1425 13.4795Z" fill="#6FD7EA"/>
<path d="M23.3006 17.8724C23.2951 17.4222 23.1833 16.9797 22.974 16.5801C22.7647 16.1806 22.4638 15.8352 22.0954 15.5716C21.6655 15.2724 21.1658 15.0867 20.6433 15.0321C20.555 15.0207 20.4667 15.0159 20.3768 15.0062C20.2868 14.9964 20.2329 14.9592 20.241 14.8684C20.2492 14.7777 20.3065 14.7453 20.4046 14.7518C21.8534 14.8393 23.0864 15.651 23.4658 17.1627C23.5352 17.4542 23.5698 17.7527 23.5688 18.0522C23.5688 18.0798 23.5688 18.1073 23.5688 18.1332C23.5688 18.2143 23.5165 18.2677 23.4364 18.2661C23.4186 18.2655 23.4011 18.2613 23.385 18.2538C23.369 18.2463 23.3546 18.2357 23.3428 18.2225C23.331 18.2093 23.3221 18.1938 23.3165 18.1771C23.3109 18.1604 23.3089 18.1427 23.3104 18.1251C23.2974 18.049 23.3006 17.9712 23.3006 17.8724Z" fill="#6FD7EA"/>
<path d="M20.7605 16.0689C21.5553 16.1224 22.1096 16.508 22.2617 17.3457C22.2802 17.453 22.2933 17.5611 22.301 17.6697C22.301 17.7572 22.2813 17.8317 22.1848 17.8317C22.0884 17.8317 22.0557 17.7669 22.0524 17.6697C22.0515 17.3486 21.9516 17.0354 21.7662 16.7721C21.5714 16.5336 21.2916 16.3782 20.9846 16.3379C20.9159 16.3251 20.8466 16.3165 20.7769 16.3119C20.6624 16.3119 20.5986 16.2552 20.6134 16.1677C20.6281 16.0802 20.6968 16.064 20.7605 16.0689Z" fill="#6FD7EA"/>
</svg>
