<svg width="41" height="40" viewBox="0 0 41 40" fill="none" xmlns="http://www.w3.org/2000/svg">
<rect x="0.574219" y="0.5" width="39" height="39" rx="5.5" stroke="#6FD7EA"/>
<path fill-rule="evenodd" clip-rule="evenodd" d="M11.5092 23.924L10.0742 29.2595L15.4638 27.8213C17.5605 28.9496 19.9944 29.2853 22.319 28.7666C24.6436 28.248 26.7028 26.9098 28.1189 24.9977C29.535 23.0856 30.2129 20.7279 30.0283 18.357C29.8436 15.9862 28.8088 13.7614 27.1136 12.0908C25.4185 10.4203 23.1768 9.41602 20.7998 9.26236C18.4229 9.1087 16.0702 9.81594 14.1734 11.2543C12.2766 12.6927 10.963 14.7657 10.4736 17.0929C9.98425 19.4202 10.3519 21.8455 11.5092 23.924ZM16.057 26.0221L15.7236 25.8247L12.7125 26.6256L13.5147 23.6476L13.3057 23.3036C12.5397 22.0583 12.1348 20.6251 12.1363 19.1638C12.1336 17.4013 12.7151 15.6874 13.79 14.2893C14.8649 12.8912 16.3729 11.8873 18.0789 11.4341C19.785 10.9809 21.5933 11.1039 23.222 11.7838C24.8508 12.4638 26.2085 13.6625 27.0835 15.1933C27.9586 16.724 28.3019 18.5007 28.0599 20.2466C27.8179 21.9924 27.0043 23.6093 25.7457 24.8453C24.4872 26.0813 22.8544 26.8669 21.1019 27.0798C19.3494 27.2926 17.5756 26.9207 16.057 26.0221ZM23.1437 20.2101C23.3884 20.2658 23.6172 20.3765 23.8126 20.5339C23.8695 20.5673 23.9318 20.6018 23.9968 20.6379C24.371 20.8455 24.8389 21.1052 24.9256 21.504C24.968 21.7329 24.9384 21.9693 24.8408 22.1808C24.6748 22.5308 24.4252 22.8348 24.1139 23.0659C23.8026 23.297 23.4392 23.4482 23.0556 23.5062C22.3824 23.5824 21.7011 23.4752 21.084 23.196C20.4899 22.9929 19.9212 22.7223 19.3891 22.3894C18.3288 21.7345 17.4059 20.8802 16.6718 19.874C16.4459 19.5676 16.2365 19.2495 16.0447 18.9208C15.7788 18.4918 15.577 18.0262 15.4458 17.539C15.3942 17.3362 15.3676 17.1278 15.3667 16.9186C15.3538 16.546 15.4247 16.1752 15.5743 15.8335C15.7239 15.4919 15.9483 15.1881 16.2311 14.9446C16.394 14.7998 16.5953 14.7053 16.8109 14.6722C17.0264 14.6392 17.2469 14.6692 17.4457 14.7584C17.8313 15.0837 18.1155 15.5123 18.2649 15.9936C18.4581 16.337 18.5483 16.7285 18.5248 17.1216C18.4188 17.478 18.2245 17.802 17.9598 18.0635C17.8842 18.1281 17.8367 18.2195 17.8272 18.3184C17.8177 18.4172 17.847 18.5159 17.909 18.5937C18.6353 19.8394 19.7622 20.8034 21.1066 21.3291C21.1814 21.37 21.2685 21.3823 21.3517 21.3636C21.435 21.3449 21.5085 21.2965 21.5585 21.2276C21.6329 21.1374 21.7073 21.019 21.7857 20.8942C21.9573 20.6208 22.1482 20.3169 22.4003 20.2124C22.6447 20.1552 22.8989 20.1544 23.1437 20.2101Z" fill="#6FD7EA"/>
</svg>
